<svg width="174" height="48" viewBox="0 0 174 48" fill="none" xmlns="http://www.w3.org/2000/svg">
<path fill-rule="evenodd" clip-rule="evenodd" d="M16.064 0C31.232 0 32.128 11.328 32.128 15.552V31.552C32.128 35.776 31.232 47.104 16.064 47.104C0.896 47.104 0 35.776 0 31.552V15.552C0 11.328 0.896 0 16.064 0ZM16.064 36.096C20.8 36.096 21.12 33.088 21.12 28.16V18.944C21.12 14.016 20.8 11.008 16.064 11.008C11.328 11.008 11.008 14.016 11.008 18.944V28.16C11.008 33.088 11.328 36.096 16.064 36.096Z" fill="#CDBD15"/>
<path d="M51.458 2.624C51.01 1.6 50.306 1.152 49.218 1.152H39.81C38.594 1.152 37.89 1.792 37.89 3.072V44.032C37.89 44.3403 37.9353 44.6157 38.0227 44.8551C41.5549 42.664 45.1826 40.6088 48.898 38.6968V23.36C48.898 22.72 49.41 22.592 49.666 23.168L54.8262 35.8028C60.3605 33.2443 66.0722 30.9972 71.938 29.0842V3.072C71.938 1.792 71.298 1.152 70.018 1.152H62.85C61.634 1.152 60.93 1.792 60.93 3.072V23.744C60.93 24.384 60.418 24.512 60.162 23.936L51.458 2.624Z" fill="#CDBD15"/>
<path d="M71.938 31.189C66.3355 33.0424 60.8769 35.2049 55.583 37.6559L58.37 44.48C58.818 45.504 59.522 45.952 60.61 45.952H70.018C71.298 45.952 71.938 45.248 71.938 44.032V31.189Z" fill="#CDBD15"/>
<path d="M48.898 40.9494C45.8899 42.5228 42.9411 44.1917 40.0556 45.952H46.978C48.258 45.952 48.898 45.248 48.898 44.032V40.9494Z" fill="#CDBD15"/>
<path d="M162.997 27.0027L173.563 3.392C174.203 2.048 173.563 1.152 172.091 1.152H162.939C161.851 1.152 161.147 1.6 160.763 2.624L156.027 14.528C155.771 15.104 155.387 15.104 155.131 14.528L150.395 2.624C150.011 1.6 149.307 1.152 148.219 1.152H139.003C137.531 1.152 136.891 2.048 137.531 3.392L146.537 23.4044C152.129 24.3158 157.622 25.5208 162.997 27.0027Z" fill="#CDBD15"/>
<path d="M147.523 25.5973C152.492 26.4505 157.378 27.5386 162.171 28.8496L162.107 28.992C161.979 29.248 161.979 29.504 161.979 29.76V44.032C161.979 45.248 161.339 45.952 160.059 45.952H151.099C149.883 45.952 149.179 45.248 149.179 44.032V29.76C149.179 29.504 149.179 29.248 149.051 28.992L147.523 25.5973Z" fill="#CDBD15"/>
<path d="M124.523 21.3804V3.072C124.523 1.792 123.883 1.152 122.603 1.152H115.435C114.219 1.152 113.515 1.792 113.515 3.072V21.5111C115.972 21.3977 118.443 21.3404 120.928 21.3404C122.13 21.3404 123.328 21.3538 124.523 21.3804Z" fill="#CDBD15"/>
<path d="M104.119 24.2348V27.136C104.119 28.352 103.479 29.056 102.2 29.056H91.6395C90.4235 29.056 89.7195 29.696 89.7195 30.976V44.032C89.7195 45.248 89.0795 45.952 87.7995 45.952H80.2475C79.0315 45.952 78.3275 45.248 78.3275 44.032V29.2279C86.6566 26.8675 95.2755 25.1818 104.119 24.2348Z" fill="#CDBD15"/>
<path d="M104.119 22.2235C95.2803 23.158 86.6619 24.8209 78.3275 27.1503V3.072C78.3275 1.792 79.0315 1.152 80.2475 1.152H107.768C109.048 1.152 109.688 1.792 109.688 3.072V10.24C109.688 11.456 109.048 12.16 107.768 12.16H91.6395C90.4235 12.16 89.7195 12.8 89.7195 14.08V16.128C89.7195 17.344 90.4235 18.048 91.6395 18.048H102.2C103.479 18.048 104.119 18.688 104.119 19.968V22.2235Z" fill="#CDBD15"/>
<path d="M120.928 23.3404C118.443 23.3404 115.971 23.3984 113.515 23.5133V44.032C113.515 45.248 114.219 45.952 115.435 45.952H140.715C141.995 45.952 142.635 45.312 142.635 44.032V36.864C142.635 35.584 141.995 34.944 140.715 34.944H126.443C125.227 34.944 124.523 34.24 124.523 33.024V23.3809C123.328 23.3539 122.13 23.3404 120.928 23.3404Z" fill="#CDBD15"/>
</svg>
