<svg width="17" height="18" viewBox="0 0 17 18" fill="none" xmlns="http://www.w3.org/2000/svg">
<path d="M8.77751 14.6639L8.49981 14.4784L8.22211 14.6639L4.10194 17.4157L4.10185 17.4155L4.0914 17.4229C3.99446 17.4913 3.92082 17.5048 3.85477 17.4987C3.75828 17.4898 3.68299 17.4572 3.61407 17.3978C3.52629 17.3221 3.45421 17.2252 3.39948 17.0981C3.36344 17.0138 3.34779 16.9047 3.37987 16.7504C3.37989 16.7503 3.37991 16.7502 3.37993 16.7501L4.47185 11.5501L4.52891 11.2783L4.32838 11.0863L0.683905 7.59547C0.584899 7.49564 0.535154 7.39639 0.51501 7.29264L0.514653 7.29083C0.489443 7.1635 0.496885 7.04445 0.536006 6.92518C0.580797 6.78862 0.640922 6.69691 0.706898 6.63291C0.74632 6.59467 0.820936 6.54796 0.969592 6.52243L5.76829 6.05623L6.0771 6.02623L6.18732 5.7362L8.04885 0.838054L8.0495 0.836324C8.09962 0.702975 8.1646 0.631525 8.2339 0.587709L8.23462 0.587247C8.3385 0.521311 8.4245 0.5 8.49981 0.5C8.57514 0.5 8.66164 0.521324 8.76643 0.587522C8.83505 0.631207 8.89991 0.702708 8.95012 0.836326L8.95078 0.838053L10.8123 5.7362L10.9225 6.02623L11.2313 6.05623L16.03 6.52243C16.1787 6.54796 16.2533 6.59467 16.2927 6.63291C16.3587 6.69691 16.4188 6.78862 16.4636 6.92518C16.5028 7.04477 16.5105 7.16414 16.4858 7.29159C16.4652 7.39585 16.4149 7.49547 16.3157 7.59544L12.6712 11.0863L12.4707 11.2783L12.5278 11.5501L13.6197 16.7501C13.6197 16.7502 13.6197 16.7502 13.6197 16.7503C13.6518 16.9047 13.6362 17.0138 13.6001 17.0981C13.5454 17.2252 13.4733 17.3221 13.3856 17.3978C13.3166 17.4572 13.2413 17.4898 13.1449 17.4987C13.0788 17.5048 13.0052 17.4913 12.9082 17.4229L12.9083 17.4228L12.8977 17.4157L8.77751 14.6639Z" fill="#FFD233" stroke="black"/>
</svg>
